<?xml version="1.0" encoding="UTF-8" standalone="no"?>
<!-- Created with Inkscape (http://www.inkscape.org/) -->

<svg
        xmlns:dc="http://purl.org/dc/elements/1.1/"
        xmlns:cc="http://creativecommons.org/ns#"
        xmlns:rdf="http://www.w3.org/1999/02/22-rdf-syntax-ns#"
        xmlns:sodipodi="http://sodipodi.sourceforge.net/DTD/sodipodi-0.dtd"
        xmlns:inkscape="http://www.inkscape.org/namespaces/inkscape"
        xmlns="http://www.w3.org/2000/svg"
        width="538.75354mm"
        height="202.06676mm"
        viewBox="0 0 1908.9692 715.98457"
        id="svg2"
        version="1.1"
        inkscape:version="0.91 r13725"
        sodipodi:docname="LogoWhiteNoBackground.svg"
        inkscape:export-filename="/media/Data/WybeData/Projects/RoboTeamTwente/Logo/LogoWhiteNoBackground.png"
        inkscape:export-xdpi="37.71669"
        inkscape:export-ydpi="37.71669">
    <defs
            id="defs4"/>
    <sodipodi:namedview
            id="base"
            pagecolor="#ffffff"
            bordercolor="#666666"
            borderopacity="1.0"
            inkscape:pageopacity="0"
            inkscape:pageshadow="2"
            inkscape:zoom="0.70000002"
            inkscape:cx="939.28905"
            inkscape:cy="361.64707"
            inkscape:document-units="px"
            inkscape:current-layer="g4265"
            showgrid="false"
            inkscape:window-width="1920"
            inkscape:window-height="1056"
            inkscape:window-x="0"
            inkscape:window-y="24"
            inkscape:window-maximized="1"
            inkscape:snap-center="true"
            inkscape:object-nodes="true"
            inkscape:snap-text-baseline="true"
            inkscape:snap-grids="false"
            fit-margin-top="20"
            fit-margin-left="20"
            fit-margin-right="20"
            fit-margin-bottom="20"
            inkscape:object-paths="true"
            inkscape:snap-page="true">
        <inkscape:grid
                type="xygrid"
                id="grid4136"
                originx="666.77745"
                originy="-181.4607"/>
    </sodipodi:namedview>
    <metadata
            id="metadata7">
        <rdf:RDF>
            <cc:Work
                    rdf:about="">
                <dc:format>image/svg+xml</dc:format>
                <dc:type
                        rdf:resource="http://purl.org/dc/dcmitype/StillImage"/>
                <dc:title></dc:title>
            </cc:Work>
        </rdf:RDF>
    </metadata>
    <g
            inkscape:label="Layer 1"
            inkscape:groupmode="layer"
            id="layer1"
            transform="translate(666.77747,-154.91694)">
        <g
                id="g4248"
                transform="translate(115.71429,231.42857)">
            <g
                    id="g4265"
                    style="fill:#ff0000;fill-opacity:1"
                    transform="translate(-60.609152,155.56349)">
                <path
                        inkscape:connector-curvature="0"
                        id="path4145-9"
                        style="font-style:normal;font-variant:normal;font-weight:normal;font-stretch:normal;font-size:medium;line-height:125%;font-family:'SF TransRobotics';-inkscape-font-specification:'SF TransRobotics';letter-spacing:0px;word-spacing:0px;fill:#ffffff;fill-opacity:1;stroke:none;stroke-width:1px;stroke-linecap:butt;stroke-linejoin:miter;stroke-opacity:1"
                        d="m -443.05798,214.43565 -66.82313,0 -67.02749,-146.520427 50.27061,0 0,-50.27062 -58.64904,0 0,196.791047 -75.40592,0 0,-251.148697 184.32558,0 q 10.01325,0 17.36993,7.56102 7.56102,7.56103 7.56102,17.57429 l 0,96.249836 q 0,10.01326 -7.56102,17.574241 -7.35668,7.56105 -17.36993,7.56105 l -14.71335,0 48.02274,104.62826 z"/>
                <path
                        inkscape:connector-curvature="0"
                        id="path4147-7"
                        style="font-style:normal;font-variant:normal;font-weight:normal;font-stretch:normal;font-size:medium;line-height:125%;font-family:'SF TransRobotics';-inkscape-font-specification:'SF TransRobotics';letter-spacing:0px;word-spacing:0px;fill:#ffffff;fill-opacity:1;stroke:none;stroke-width:1px;stroke-linecap:butt;stroke-linejoin:miter;stroke-opacity:1"
                        d="m -233.39274,189.30037 q 0,10.01326 -7.56102,17.5743 -7.56103,7.56098 -17.57428,7.56098 l -142.43341,0 q -10.01325,0 -17.57428,-7.56098 -7.56103,-7.56104 -7.56103,-17.5743 l 0,-138.142027 q 0,-10.01325 7.56103,-17.57428 7.56103,-7.56102 17.57428,-7.56102 l 142.43341,0 q 10.01325,0 17.57428,7.56102 7.56102,7.56103 7.56102,17.57428 l 0,138.142027 z m -75.40591,-29.22236 0,-79.492981 -41.89219,0 0,79.492981 41.89219,0 z"/>
                <path
                        inkscape:connector-curvature="0"
                        id="path4149-0"
                        style="font-style:normal;font-variant:normal;font-weight:normal;font-stretch:normal;font-size:medium;line-height:125%;font-family:'SF TransRobotics';-inkscape-font-specification:'SF TransRobotics';letter-spacing:0px;word-spacing:0px;fill:#ffffff;fill-opacity:1;stroke:none;stroke-width:1px;stroke-linecap:butt;stroke-linejoin:miter;stroke-opacity:1"
                        d="m -15.96212,189.30037 q 0,10.01326 -7.56104,17.5743 -7.56104,7.56098 -17.574302,7.56098 l -167.568688,0 0,-251.148697 75.40592,0 0,62.73609 92.162768,0 q 10.013262,0 17.574302,7.56102 7.56104,7.56103 7.56104,17.57428 l 0,138.142027 z m -75.40591,-29.22236 0,-79.492981 -41.8922,0 0,79.492981 41.8922,0 z"/>
                <path
                        inkscape:connector-curvature="0"
                        id="path4151-0"
                        style="font-style:normal;font-variant:normal;font-weight:normal;font-stretch:normal;font-size:medium;line-height:125%;font-family:'SF TransRobotics';-inkscape-font-specification:'SF TransRobotics';letter-spacing:0px;word-spacing:0px;fill:#ffffff;fill-opacity:1;stroke:none;stroke-width:1px;stroke-linecap:butt;stroke-linejoin:miter;stroke-opacity:1"
                        d="m 201.46856,189.30037 q 0,10.01326 -7.56105,17.5743 -7.56104,7.56098 -17.5743,7.56098 l -142.43336,0 q -10.01326,0 -17.5743,-7.56098 -7.5610401,-7.56104 -7.5610401,-17.5743 l 0,-138.142027 q 0,-10.01325 7.5610401,-17.57428 7.56104,-7.56102 17.5743,-7.56102 l 142.43336,0 q 10.01326,0 17.5743,7.56102 7.56105,7.56103 7.56105,17.57428 l 0,138.142027 z m -75.40591,-29.22236 0,-79.492981 -41.89223,0 0,79.492981 41.89223,0 z"/>
                <path
                        inkscape:connector-curvature="0"
                        id="path4155-4"
                        style="font-style:normal;font-variant:normal;font-weight:normal;font-stretch:normal;font-size:medium;line-height:125%;font-family:'SF TransRobotics';-inkscape-font-specification:'SF TransRobotics';letter-spacing:0px;word-spacing:0px;fill:#ffffff;fill-opacity:1;stroke:none;stroke-width:1px;stroke-linecap:butt;stroke-linejoin:miter;stroke-opacity:1"
                        d="m 573.53305,160.07801 -25.1353,54.35764 -142.4334,0 q -10.0133,0 -17.5743,-7.56098 -7.561,-7.56104 -7.561,-17.5743 l 0,-138.142027 q 0,-10.01325 7.561,-17.57428 7.561,-7.56102 17.5743,-7.56102 l 142.4334,0 q 10.0133,0 17.5743,7.56102 7.561,7.56103 7.561,17.57428 l 0,67.027507 q 0,10.01327 -7.561,17.57425 -7.561,7.56104 -17.5743,7.56104 l -92.1628,0 0,16.75687 117.2981,0 z m -75.4059,-58.64903 0,-20.843951 -41.8922,0 0,20.843951 41.8922,0 z"/>
                <path
                        inkscape:connector-curvature="0"
                        id="path4157-9"
                        style="font-style:normal;font-variant:normal;font-weight:normal;font-stretch:normal;font-size:medium;line-height:125%;font-family:'SF TransRobotics';-inkscape-font-specification:'SF TransRobotics';letter-spacing:0px;word-spacing:0px;fill:#ffffff;fill-opacity:1;stroke:none;stroke-width:1px;stroke-linecap:butt;stroke-linejoin:miter;stroke-opacity:1"
                        d="m 791.37245,214.43565 -167.5688,0 q -10.0132,0 -17.5742,-7.56098 -7.5611,-7.56104 -7.5611,-17.5743 l 0,-62.73611 q 0,-10.01326 7.5611,-17.57424 7.561,-7.56104 17.5742,-7.56104 l 92.1628,0 0,-20.843951 -117.2981,0 0,-54.561986 167.5687,0 q 10.0133,0 17.5743,7.56102 7.5611,7.56103 7.5611,17.57428 l 0,163.277307 z m -75.406,-54.35764 0,-16.75687 -41.8922,0 0,16.75687 41.8922,0 z"/>
                <path
                        inkscape:connector-curvature="0"
                        id="path4159-6"
                        style="font-style:normal;font-variant:normal;font-weight:normal;font-stretch:normal;font-size:medium;line-height:125%;font-family:'SF TransRobotics';-inkscape-font-specification:'SF TransRobotics';letter-spacing:0px;word-spacing:0px;fill:#ffffff;fill-opacity:1;stroke:none;stroke-width:1px;stroke-linecap:butt;stroke-linejoin:miter;stroke-opacity:1"
                        d="m 1125.897,214.43565 -75.4059,0 0,-133.850621 -41.688,0 0,133.850621 -75.40595,0 0,-133.850621 -41.8922,0 0,133.850621 -75.4059,0 0,-188.412607 284.66255,0 q 10.0133,0 17.5743,7.56103 7.5611,7.56103 7.5611,17.57428 l 0,163.277297 z"/>
                <g
                        style="font-style:normal;font-weight:normal;font-size:44.84433746px;line-height:125%;font-family:sans-serif;letter-spacing:0px;word-spacing:0px;fill:#ffffff;fill-opacity:1;stroke:none;stroke-width:1px;stroke-linecap:butt;stroke-linejoin:miter;stroke-opacity:1"
                        id="text4140-4"
                        transform="matrix(6.1636488,0,0,6.1636488,-718.91109,-511.31262)">
                    <path
                            d="m 211.61888,145.96885 q 0,1.07294 -0.81018,1.88311 -0.81018,0.81018 -1.88311,0.81018 l -27.80875,0 q -1.07293,0 -1.88311,-0.81018 -0.81017,-0.81017 -0.81017,-1.88311 l 0,-17.49542 8.07986,0 0,14.3642 4.48881,0 0,-14.3642 8.07987,0 0,14.3642 4.46691,0 0,-14.3642 8.07987,0 0,17.49542 z"
                            style="font-style:normal;font-variant:normal;font-weight:normal;font-stretch:normal;font-family:'SF TransRobotics';-inkscape-font-specification:'SF TransRobotics';fill:#ffffff;fill-opacity:1"
                            id="path4162-6"
                            inkscape:connector-curvature="0"/>
                    <path
                            d="m 234.9826,142.83763 -2.69329,5.82451 -15.26196,0 q -1.07294,0 -1.88311,-0.81018 -0.81018,-0.81017 -0.81018,-1.88311 l 0,-14.80213 q 0,-1.07294 0.81018,-1.88311 0.81017,-0.81018 1.88311,-0.81018 l 15.26196,0 q 1.07294,0 1.88311,0.81018 0.81018,0.81017 0.81018,1.88311 l 0,7.1821 q 0,1.07293 -0.81018,1.88311 -0.81017,0.81018 -1.88311,0.81018 l -9.87539,0 0,1.79552 12.56868,0 z m -8.07986,-6.28434 0,-2.23346 -4.48882,0 0,2.23346 4.48882,0 z"
                            style="font-style:normal;font-variant:normal;font-weight:normal;font-stretch:normal;font-family:'SF TransRobotics';-inkscape-font-specification:'SF TransRobotics';fill:#ffffff;fill-opacity:1"
                            id="path4164-0"
                            inkscape:connector-curvature="0"/>
                    <path
                            d="m 258.28063,148.66214 -8.07986,0 0,-14.34231 -4.48881,0 0,14.34231 -8.07987,0 0,-20.18871 17.95526,0 q 1.07293,0 1.88311,0.81018 0.81017,0.81017 0.81017,1.88311 l 0,17.49542 z"
                            style="font-style:normal;font-variant:normal;font-weight:normal;font-stretch:normal;font-family:'SF TransRobotics';-inkscape-font-specification:'SF TransRobotics';fill:#ffffff;fill-opacity:1"
                            id="path4166-4"
                            inkscape:connector-curvature="0"/>
                    <path
                            d="m 277.08986,148.66214 -12.56868,0 q -1.07293,0 -1.88311,-0.81018 -0.81018,-0.81017 -0.81018,-1.88311 l 0,-13.00661 -2.23345,0 0,-4.48881 2.23345,0 0,-6.72227 8.07987,0 0,6.72227 4.48881,0 0,4.48881 -4.48881,0 0,9.87539 4.48881,0 2.69329,5.82451 z"
                            style="font-style:normal;font-variant:normal;font-weight:normal;font-stretch:normal;font-family:'SF TransRobotics';-inkscape-font-specification:'SF TransRobotics';fill:#ffffff;fill-opacity:1"
                            id="path4168-9"
                            inkscape:connector-curvature="0"/>
                    <path
                            d="m 299.09599,142.83763 -2.69329,5.82451 -15.26196,0 q -1.07294,0 -1.88311,-0.81018 -0.81018,-0.81017 -0.81018,-1.88311 l 0,-14.80213 q 0,-1.07294 0.81018,-1.88311 0.81017,-0.81018 1.88311,-0.81018 l 15.26196,0 q 1.07294,0 1.88312,0.81018 0.81017,0.81017 0.81017,1.88311 l 0,7.1821 q 0,1.07293 -0.81017,1.88311 -0.81018,0.81018 -1.88312,0.81018 l -9.87539,0 0,1.79552 12.56868,0 z m -8.07986,-6.28434 0,-2.23346 -4.48882,0 0,2.23346 4.48882,0 z"
                            style="font-style:normal;font-variant:normal;font-weight:normal;font-stretch:normal;font-family:'SF TransRobotics';-inkscape-font-specification:'SF TransRobotics';fill:#ffffff;fill-opacity:1"
                            id="path4170-9"
                            inkscape:connector-curvature="0"/>
                </g>
                <path
                        style="opacity:1;fill:#ffffff;fill-opacity:1;stroke:none;stroke-width:3;stroke-miterlimit:4;stroke-dasharray:none;stroke-opacity:1"
                        d="M 968.1582 78.923828 C 967.71898 78.930053 967.27681 78.948123 966.83203 78.980469 L 834.00391 88.640625 C 819.51591 89.939315 819.01979 91.703142 815.71289 104.49414 C 812.23039 119.27046 799.88672 171.64062 799.88672 171.64062 C 797.61232 185.72862 811.37598 197.39844 825.64648 197.39844 L 936.56836 197.39844 L 948.04883 197.39844 L 948.04883 637.06445 L 1078.0488 637.06445 L 1078.0488 197.39844 L 1199.4414 197.39844 C 1213.7119 197.39844 1227.4756 185.72863 1225.2012 171.64062 C 1225.2012 171.64062 1212.8575 119.27046 1209.375 104.49414 C 1206.0681 91.703142 1205.572 89.939315 1191.084 88.640625 L 1058.2559 78.980469 C 1057.8111 78.948123 1057.3689 78.930053 1056.9297 78.923828 C 1053.1714 78.870568 1049.6279 79.764117 1046.4648 81.371094 L 1046.4629 81.367188 L 1037.4902 84.902344 C 1023.4587 90.430034 1000.8636 90.430094 986.83203 84.902344 L 980.35938 82.351562 C 976.78007 80.132773 972.62171 78.860574 968.1582 78.923828 z M 896.11523 108.16016 A 30 30 0 0 1 926.11523 138.16016 A 30 30 0 0 1 896.11523 168.16016 A 30 30 0 0 1 866.11523 138.16016 A 30 30 0 0 1 896.11523 108.16016 z M 1128.9727 108.16016 A 30 30 0 0 1 1158.9727 138.16016 A 30 30 0 0 1 1128.9727 168.16016 A 30 30 0 0 1 1098.9727 138.16016 A 30 30 0 0 1 1128.9727 108.16016 z "
                        transform="translate(-721.88261,-232.07512)"
                        id="rect4204-7-9-5-9-5-4-5-3-4"/>
            </g>
        </g>
    </g>
</svg>
